<?xml version="1.0" encoding="UTF-8" standalone="no"?>
<svg
   xmlns:dc="http://purl.org/dc/elements/1.1/"
   xmlns:cc="http://creativecommons.org/ns#"
   xmlns:rdf="http://www.w3.org/1999/02/22-rdf-syntax-ns#"
   xmlns:svg="http://www.w3.org/2000/svg"
   xmlns="http://www.w3.org/2000/svg"
   xmlns:sodipodi="http://sodipodi.sourceforge.net/DTD/sodipodi-0.dtd"
   xmlns:inkscape="http://www.inkscape.org/namespaces/inkscape"
   inkscape:version="1.0.1 (3bc2e813f5, 2020-09-07)"
   sodipodi:docname="icon.svg"
   id="svg10"
   version="1.1"
   viewBox="0 0 10240 10240"
   clip-rule="evenodd"
   fill-rule="nonzero"
   image-rendering="optimizeQuality"
   text-rendering="geometricPrecision"
   shape-rendering="geometricPrecision"
   height="1024px"
   width="1024px"
   xml:space="preserve"><metadata
   id="metadata16"><rdf:RDF><cc:Work
       rdf:about=""><dc:format>image/svg+xml</dc:format><dc:type
         rdf:resource="http://purl.org/dc/dcmitype/StillImage" /></cc:Work></rdf:RDF></metadata><defs
   id="defs14" /><sodipodi:namedview
   inkscape:current-layer="svg10"
   inkscape:window-maximized="1"
   inkscape:window-y="32"
   inkscape:window-x="1912"
   inkscape:cy="511.49204"
   inkscape:cx="512.50795"
   inkscape:zoom="0.80681682"
   showgrid="false"
   id="namedview12"
   inkscape:window-height="1017"
   inkscape:window-width="1920"
   inkscape:pageshadow="2"
   inkscape:pageopacity="0"
   guidetolerance="10"
   gridtolerance="10"
   objecttolerance="10"
   borderopacity="1"
   bordercolor="#666666"
   pagecolor="#ffffff"
   inkscape:document-rotation="0" />
	<title
   id="title2">webcam icon</title>
	<desc
   id="desc4">webcam icon from the IconExperience.com O-Collection. Copyright by INCORS GmbH (www.incors.com).</desc>
	<rect
   inkscape:export-ydpi="98.152626"
   inkscape:export-xdpi="98.152626"
   y="-10.158731"
   x="-10.158731"
   height="10250.158"
   width="10270.477"
   id="rect841"
   style="fill:#4d82b8;stroke-width:129.644"
   inkscape:export-filename="C:\Users\andyd\Desktop\g843.png" />
	
	
	
<g
   id="g843"
   transform="translate(36.06502,23.670714)"
   inkscape:export-filename="C:\Users\andyd\Desktop\g843.png"
   inkscape:export-xdpi="98"
   inkscape:export-ydpi="98"><path
     id="curve2"
     fill="#252525"
     d="m 9600,8640 c 0,176 -144,320 -320,320 H 960 C 784,8960 640,8816 640,8640 V 1920 c 0,-353 288,-640 640,-640 h 7680 c 353,0 640,288 640,640 0,2240 0,4480 0,6720 z M 3840,3200 V 8320 H 8960 V 3200 Z m -2560,0 V 8320 H 3200 V 3200 Z" /><path
     id="curve1"
     fill="#de8d00"
     d="M 6720,3520 H 8000 V 4800 H 6720 Z m -1920,0 H 6080 V 4800 H 4800 Z M 6720,5120 H 8000 V 6400 H 6720 Z m -1920,0 H 6080 V 6400 H 4800 Z M 6720,6720 H 8000 V 8000 H 6720 Z m -1920,0 H 6080 V 8000 H 4800 Z" /><path
     id="curve0"
     fill="#252525"
     d="m 1600,3840 h 1280 v 640 H 1600 Z m 0,1920 h 1280 v 640 H 1600 Z m -5,-960 h 1280 v 640 H 1595 Z" /></g></svg>
